<svg xmlns="http://www.w3.org/2000/svg" width="55" height="55" viewBox="0 0 55 55">
  <g id="Group_71" data-name="Group 71" transform="translate(-216.953 -620.739)">
    <g id="Group_67" data-name="Group 67">
      <g id="Group_64" data-name="Group 64">
        <path id="Path_3300" data-name="Path 3300" d="M253.016,658.516,256.489,661V630.019l-3.473,2.488Z" fill="#1c1c1c"/>
      </g>
      <g id="Group_65" data-name="Group 65">
        <path id="Rectangle_18" data-name="Rectangle 18" d="M1.411,0h7.3a0,0,0,0,1,0,0V12.772a0,0,0,0,1,0,0h-7.3A1.411,1.411,0,0,1,0,11.361V1.411A1.411,1.411,0,0,1,1.411,0Z" transform="translate(232.147 639.323)" fill="#fd5d14"/>
      </g>
      <g id="Group_66" data-name="Group 66">
        <path id="Path_3301" data-name="Path 3301" d="M240.844,656.14h1.109a1.454,1.454,0,0,1,1.454,1.454h0a1.454,1.454,0,0,1-1.454,1.455H241.3" fill="#fd5d14"/>
      </g>
    </g>
    <g id="Group_68" data-name="Group 68">
      <path id="Path_3302" data-name="Path 3302" d="M265.261,646.251h-5.209a.739.739,0,1,1,0-1.478h5.209a.739.739,0,1,1,0,1.478Z" fill="#606060"/>
    </g>
    <g id="Group_69" data-name="Group 69">
      <path id="Path_3303" data-name="Path 3303" d="M260.159,637.878a.8.8,0,0,1-.145-.014.739.739,0,0,1-.58-.87c.047-.238.05-.252,4.111-5.345a.739.739,0,1,1,1.156.921c-1.4,1.752-3.662,4.606-3.908,4.949A.74.74,0,0,1,260.159,637.878Zm.724-.592Zm0,0h0Zm0,0h0Z" fill="#606060"/>
    </g>
    <g id="Group_70" data-name="Group 70">
      <path id="Path_3304" data-name="Path 3304" d="M263.754,659.5a.738.738,0,0,1-.579-.278c-4.061-5.094-4.064-5.108-4.111-5.346a.739.739,0,0,1,1.359-.524c.247.343,2.511,3.2,3.908,4.948a.739.739,0,0,1-.577,1.2Zm-3.241-5.914h0Zm0,0Zm0,0Z" fill="#606060"/>
    </g>
    <path id="Path_3305" data-name="Path 3305" d="M256.489,661.842a.642.642,0,0,1-.373-.12l-12.019-8.61a2.007,2.007,0,0,0-1.173-.377.64.64,0,1,1,0-1.28,3.276,3.276,0,0,1,1.918.616l7.377,5.284a.1.1,0,0,0,.1.008.1.1,0,0,0,.054-.088V634.143a.1.1,0,0,0-.054-.087.091.091,0,0,0-.045-.012.1.1,0,0,0-.058.019l-7.376,5.284a3.279,3.279,0,0,1-1.919.616.64.64,0,0,1,0-1.28,2,2,0,0,0,1.173-.377l12.019-8.609a.636.636,0,0,1,.374-.12.637.637,0,0,1,.639.64V661.2a.638.638,0,0,1-.347.57A.646.646,0,0,1,256.489,661.842Zm-.739-30.285a.1.1,0,0,0-.058.018L253.7,633l-.041,25.33,2.036,1.509a.1.1,0,0,0,.058.019.1.1,0,0,0,.045-.011.1.1,0,0,0,.054-.088V631.656a.1.1,0,0,0-.054-.088A.091.091,0,0,0,255.75,631.557Z" fill="#606060"/>
    <path id="Path_3306" data-name="Path 3306" d="M228.88,651.335a1.977,1.977,0,0,1-1.974-1.975v-7.278a1.976,1.976,0,0,1,1.974-1.974h1.111a.64.64,0,0,1,0,1.28H228.88a.7.7,0,0,0-.694.694v7.278a.7.7,0,0,0,.694.7h1.111a.64.64,0,0,1,0,1.28Z" fill="#606060"/>
    <path id="Path_3307" data-name="Path 3307" d="M239.593,666.9a.64.64,0,0,1-.589-.389l-5.873-13.786a2.147,2.147,0,0,1-1.624-2.041v-9.95a2.053,2.053,0,0,1,2.052-2.051h7.3a.641.641,0,0,1,.64.64v12.772a.641.641,0,0,1-.64.64.18.18,0,0,0-.107.035c-.018.022-.059.051-.054.079l.4,2.566a.1.1,0,0,0,.1.085h.76a2.095,2.095,0,1,1,0,4.189.2.2,0,0,0-.115.035c-.019.022-.069.051-.064.079l.985,6.359a.64.64,0,0,1-.633.738Zm-4.916-14.165a.1.1,0,0,0-.091.138l5.4,12.686a.1.1,0,0,0,.091.061h1.182a.1.1,0,0,0,.1-.115L239.4,652.819a.1.1,0,0,0-.1-.084Zm6.745,4.045a.1.1,0,0,0-.075.035.094.094,0,0,0-.023.079l.221,1.431a.1.1,0,0,0,.1.084h.31a.814.814,0,0,0,0-1.629Zm-7.863-16.817a.772.772,0,0,0-.772.771v9.95a.772.772,0,0,0,.772.771h6.561a.1.1,0,0,0,.1-.1V640.062a.1.1,0,0,0-.1-.1Z" fill="#606060"/>
  </g>
  <g id="Rectangle_124" data-name="Rectangle 124" fill="none" stroke="#e6e6e6" stroke-width="2">
    <rect width="55" height="55" rx="11" stroke="none"/>
    <rect x="1" y="1" width="53" height="53" rx="10" fill="none"/>
  </g>
</svg>
