<svg xmlns="http://www.w3.org/2000/svg" width="42" height="42" viewBox="0 0 42 42">
  <g id="Oval" fill="#f5f6f7" stroke="#fff" stroke-miterlimit="10" stroke-width="3">
    <circle cx="21" cy="21" r="21" stroke="none"/>
    <circle cx="21" cy="21" r="19.5" fill="none"/>
  </g>
  <path id="Path" d="M3.2.549a1.873,1.873,0,1,1-2.649,0A1.873,1.873,0,0,1,3.2.549" transform="translate(18.618 19.167)"/>
  <path id="Shape" d="M13.11,13.111H1.873A1.875,1.875,0,0,1,0,11.237L.005,3.749A1.876,1.876,0,0,1,1.875,1.877l1.292,0L4.1,0h6.776l.937,1.873H13.11a1.875,1.875,0,0,1,1.873,1.873v7.492A1.875,1.875,0,0,1,13.11,13.111ZM7.492,3.278a3.746,3.746,0,1,0,3.746,3.746A3.75,3.75,0,0,0,7.492,3.278Z" transform="translate(13 14.016)"/>
</svg>
