<svg xmlns="http://www.w3.org/2000/svg" width="22" height="22" viewBox="0 0 22 22">
  <path id="Path_3352" data-name="Path 3352" d="M18.556,8.444h2.222A2.222,2.222,0,0,1,23,10.667v6.667a2.222,2.222,0,0,1-2.222,2.222H18.556V24l-4.444-4.444H9.667A2.216,2.216,0,0,1,8.1,18.9m0,0,3.793-3.793h4.444a2.222,2.222,0,0,0,2.222-2.222V6.222A2.222,2.222,0,0,0,16.333,4H5.222A2.222,2.222,0,0,0,3,6.222v6.667a2.222,2.222,0,0,0,2.222,2.222H7.444v4.444Z" transform="translate(-2 -3)" fill="none" stroke="#fff" stroke-linecap="round" stroke-linejoin="round" stroke-width="2"/>
</svg>
