<svg xmlns="http://www.w3.org/2000/svg" width="16.5" height="22" viewBox="0 0 16.5 22">
  <g id="Group_305" data-name="Group 305" transform="translate(-4 -2)">
    <path id="Path_3456" data-name="Path 3456" d="M9,2A1,1,0,0,0,9,4h2a1,1,0,0,0,0-2Z" transform="translate(2.25)" fill="#fd5d14"/>
    <path id="Path_3457" data-name="Path 3457" d="M4,5.8A2.775,2.775,0,0,1,6.75,3a4.163,4.163,0,0,0,4.125,4.2h2.75A4.163,4.163,0,0,0,17.75,3,2.775,2.775,0,0,1,20.5,5.8V21.2A2.775,2.775,0,0,1,17.75,24h-11A2.775,2.775,0,0,1,4,21.2Zm4.125,5.6a1.4,1.4,0,0,0,0,2.8h.014a1.4,1.4,0,0,0,0-2.8Zm4.125,0a1.4,1.4,0,0,0,0,2.8h4.125a1.4,1.4,0,0,0,0-2.8ZM8.125,17a1.4,1.4,0,0,0,0,2.8h.014a1.4,1.4,0,0,0,0-2.8Zm4.125,0a1.4,1.4,0,0,0,0,2.8h4.125a1.4,1.4,0,0,0,0-2.8Z" transform="translate(0 0)" fill="#fd5d14" fill-rule="evenodd"/>
  </g>
</svg>
