<svg xmlns="http://www.w3.org/2000/svg" width="20" height="757" viewBox="0 0 20 757">
  <path id="Path_8840" data-name="Path 8840" d="M3,4.429A1.429,1.429,0,0,1,4.429,3H8.714a1.429,1.429,0,0,1,1.429,1.429V8.714a1.429,1.429,0,0,1-1.429,1.429H4.429A1.429,1.429,0,0,1,3,8.714ZM5.857,7.286V5.857H7.286V7.286ZM3,17.286a1.429,1.429,0,0,1,1.429-1.429H8.714a1.429,1.429,0,0,1,1.429,1.429v4.286A1.429,1.429,0,0,1,8.714,23H4.429A1.429,1.429,0,0,1,3,21.571Zm2.857,2.857V18.714H7.286v1.429ZM17.286,3a1.429,1.429,0,0,0-1.429,1.429V8.714a1.429,1.429,0,0,0,1.429,1.429h4.286A1.429,1.429,0,0,0,23,8.714V4.429A1.429,1.429,0,0,0,21.571,3Zm1.429,2.857V7.286h1.429V5.857Z" transform="translate(-3 -3)" fill="#fff" fill-rule="evenodd"/>
  <path id="Path_8841" data-name="Path 8841" d="M14.429,4.429a1.429,1.429,0,1,0-2.857,0V5.857a1.429,1.429,0,0,0,2.857,0ZM13,8.714a1.429,1.429,0,0,1,1.429,1.429v1.429h2.857a1.429,1.429,0,1,1,0,2.857H13A1.429,1.429,0,0,1,11.571,13V10.143A1.429,1.429,0,0,1,13,8.714Zm8.571,2.857A1.429,1.429,0,1,0,23,13,1.429,1.429,0,0,0,21.571,11.571Zm-10,5.714A1.429,1.429,0,0,1,13,15.857h1.429a1.429,1.429,0,0,1,0,2.857v2.857a1.429,1.429,0,1,1-2.857,0ZM8.714,14.429a1.429,1.429,0,1,0,0-2.857H4.429a1.429,1.429,0,1,0,0,2.857ZM23,17.286a1.429,1.429,0,0,1-1.429,1.429H18.714a1.429,1.429,0,1,1,0-2.857h2.857A1.429,1.429,0,0,1,23,17.286ZM21.571,23a1.429,1.429,0,1,0,0-2.857H17.286a1.429,1.429,0,0,0,0,2.857Z" transform="translate(-3 734)" fill="#fff"/>
</svg>
