<svg xmlns="http://www.w3.org/2000/svg" width="20" height="20" viewBox="0 0 20 20">
  <path id="Path_8840" data-name="Path 8840" d="M3,4.429A1.429,1.429,0,0,1,4.429,3H8.714a1.429,1.429,0,0,1,1.429,1.429V8.714a1.429,1.429,0,0,1-1.429,1.429H4.429A1.429,1.429,0,0,1,3,8.714ZM5.857,7.286V5.857H7.286V7.286ZM3,17.286a1.429,1.429,0,0,1,1.429-1.429H8.714a1.429,1.429,0,0,1,1.429,1.429v4.286A1.429,1.429,0,0,1,8.714,23H4.429A1.429,1.429,0,0,1,3,21.571Zm2.857,2.857V18.714H7.286v1.429ZM17.286,3a1.429,1.429,0,0,0-1.429,1.429V8.714a1.429,1.429,0,0,0,1.429,1.429h4.286A1.429,1.429,0,0,0,23,8.714V4.429A1.429,1.429,0,0,0,21.571,3Zm1.429,2.857V7.286h1.429V5.857Z" transform="translate(-3 -3)" fill="#fff" fill-rule="evenodd"/>
</svg>
