<svg xmlns="http://www.w3.org/2000/svg" width="22" height="22" viewBox="0 0 22 22">
  <path id="Path_3455" data-name="Path 3455" d="M15.049,3.609a2.109,2.109,0,0,0-4.1,0,2.107,2.107,0,0,1-3.143,1.3,2.107,2.107,0,0,0-2.9,2.9,2.108,2.108,0,0,1-1.3,3.145,2.107,2.107,0,0,0,0,4.095,2.107,2.107,0,0,1,1.3,3.145,2.107,2.107,0,0,0,2.9,2.9,2.107,2.107,0,0,1,3.145,1.3,2.107,2.107,0,0,0,4.095,0,2.108,2.108,0,0,1,3.145-1.3,2.107,2.107,0,0,0,2.9-2.9,2.108,2.108,0,0,1,1.3-3.145,2.107,2.107,0,0,0,0-4.095,2.107,2.107,0,0,1-1.3-3.145,2.107,2.107,0,0,0-2.9-2.9,2.107,2.107,0,0,1-3.145-1.3ZM13,17.125A4.125,4.125,0,1,0,8.875,13,4.125,4.125,0,0,0,13,17.125Z" transform="translate(-2 -2)" fill="#fd5d14" fill-rule="evenodd"/>
</svg>
