<svg xmlns="http://www.w3.org/2000/svg" width="30.067" height="30.067" viewBox="0 0 30.067 30.067">
  <path id="Path_6982" data-name="Path 6982" d="M5.914,15.154H9.571a25.387,25.387,0,0,1,1.573-7.738,11.283,11.283,0,0,0-5.23,7.738ZM17.033,2A15.033,15.033,0,1,0,32.067,17.033,15.033,15.033,0,0,0,17.033,2Zm0,3.758a1.324,1.324,0,0,0-.874.492,7.042,7.042,0,0,0-1.385,2.221,20.9,20.9,0,0,0-1.439,6.682h7.4a20.9,20.9,0,0,0-1.439-6.682,7.054,7.054,0,0,0-1.385-2.221A1.324,1.324,0,0,0,17.033,5.758Zm7.462,9.4a25.387,25.387,0,0,0-1.573-7.738,11.283,11.283,0,0,1,5.23,7.738Zm-3.764,3.758h-7.4a20.9,20.9,0,0,0,1.439,6.682,7.054,7.054,0,0,0,1.385,2.221,1.324,1.324,0,0,0,.874.492,1.324,1.324,0,0,0,.874-.492,7.009,7.009,0,0,0,1.385-2.221A20.9,20.9,0,0,0,20.732,18.912Zm2.191,7.738A25.375,25.375,0,0,0,24.5,18.912h3.657a11.283,11.283,0,0,1-5.23,7.738Zm-11.779,0a25.333,25.333,0,0,1-1.571-7.738H5.914a11.283,11.283,0,0,0,5.23,7.738Z" transform="translate(-2 -2)" fill="#fff" fill-rule="evenodd"/>
</svg>
