<svg xmlns="http://www.w3.org/2000/svg" width="22" height="20.625" viewBox="0 0 22 20.625">
  <path id="Path_3459" data-name="Path 3459" d="M13.682,2.181a1.375,1.375,0,0,0-1.364,0l-9.625,5.5a1.375,1.375,0,0,0,.682,2.569v9.625a1.375,1.375,0,0,0,0,2.75h19.25a1.375,1.375,0,0,0,0-2.75V10.25a1.375,1.375,0,0,0,.682-2.569ZM7.5,11.625A1.375,1.375,0,0,0,6.125,13v4.125a1.375,1.375,0,0,0,2.75,0V13A1.375,1.375,0,0,0,7.5,11.625ZM11.625,13a1.375,1.375,0,0,1,2.75,0v4.125a1.375,1.375,0,0,1-2.75,0ZM18.5,11.625A1.375,1.375,0,0,0,17.125,13v4.125a1.375,1.375,0,1,0,2.75,0V13A1.375,1.375,0,0,0,18.5,11.625Z" transform="translate(-2 -2)" fill="#fd5d14" fill-rule="evenodd"/>
</svg>
