<svg xmlns="http://www.w3.org/2000/svg" width="55" height="55" viewBox="0 0 55 55">
  <g id="Group_24" data-name="Group 24" transform="translate(7.5 10)">
    <path id="Path_3233" data-name="Path 3233" d="M186.912,637.467l-4.364,1.007a.689.689,0,0,0-.51.852l4.485,16.444Z" transform="translate(-177.062 -627.731)" fill="#1c1c1c"/>
    <path id="Path_3234" data-name="Path 3234" d="M207.327,637.856l4.365,1.007a.689.689,0,0,1,.509.853l-4.484,16.444Z" transform="translate(-177.062 -627.731)" fill="#1c1c1c"/>
    <g id="Group_19" data-name="Group 19" transform="translate(9.461)">
      <path id="Path_3235" data-name="Path 3235" d="M205.714,657.717H188.751a2.23,2.23,0,0,1-2.228-2.228v-25.53a2.23,2.23,0,0,1,2.228-2.228h16.963a2.23,2.23,0,0,1,2.228,2.228v25.53A2.23,2.23,0,0,1,205.714,657.717ZM188.751,628.9a1.061,1.061,0,0,0-1.06,1.06v25.53a1.061,1.061,0,0,0,1.06,1.06h16.963a1.061,1.061,0,0,0,1.06-1.06v-25.53a1.061,1.061,0,0,0-1.06-1.06Z" transform="translate(-186.523 -627.731)" fill="#606060"/>
    </g>
    <g id="Group_20" data-name="Group 20" transform="translate(0 7.197)">
      <path id="Path_3236" data-name="Path 3236" d="M185.634,665.657a2.23,2.23,0,0,1-2.155-1.676l-6.346-24.728a2.226,2.226,0,0,1,1.6-2.712l6.209-1.594a.584.584,0,0,1,.291,1.132l-6.21,1.593a1.06,1.06,0,0,0-.762,1.29l6.346,24.729a1.059,1.059,0,0,0,1.29.763l7.777-2a.584.584,0,1,1,.291,1.132l-7.778,2A2.257,2.257,0,0,1,185.634,665.657Z" transform="translate(-177.062 -634.928)" fill="#606060"/>
    </g>
    <path id="Path_3237" data-name="Path 3237" d="M196.936,643.7l2.235,4.479H194.7Z" transform="translate(-177.062 -627.731)" fill="#fd5d14"/>
    <path id="Path_3238" data-name="Path 3238" d="M197.25,644.073c.875,1.4,3.486,1.05,4.186-.874.8-2.206-1.038-4.548-4.186-6.122-3.148,1.574-5,3.916-4.2,6.122C193.752,645.123,196.376,645.472,197.25,644.073Z" transform="translate(-177.062 -627.731)" fill="#fd5d14"/>
    <g id="Group_21" data-name="Group 21" transform="translate(15.218 8.762)">
      <path id="Path_3239" data-name="Path 3239" d="M198.944,645.509a2.528,2.528,0,0,1-2.189-1.126.584.584,0,0,1,.991-.619,1.416,1.416,0,0,0,1.407.565,2.054,2.054,0,0,0,1.734-1.33c.626-1.722-.8-3.769-3.637-5.265-2.845,1.5-4.274,3.546-3.648,5.265a2,2,0,0,0,1.014,1.12,1.44,1.44,0,0,0,.9.041.584.584,0,1,1,.559,1.026,2.581,2.581,0,0,1-1.874.025l-.052-.022A3.169,3.169,0,0,1,192.5,643.4c-.873-2.4.845-5.024,4.485-6.843a.58.58,0,0,1,.523,0c3.633,1.816,5.347,4.439,4.473,6.843a3.209,3.209,0,0,1-2.71,2.093A3.11,3.11,0,0,1,198.944,645.509Z" transform="translate(-192.28 -636.493)" fill="#606060"/>
    </g>
    <g id="Group_22" data-name="Group 22" transform="translate(17.647 15.577)">
      <path id="Path_3240" data-name="Path 3240" d="M199.172,648.76h-3.879a.584.584,0,0,1,0-1.168h2.973l-1.566-3.459a.584.584,0,0,1,1.065-.481l1.939,4.283a.584.584,0,0,1-.532.825Z" transform="translate(-194.709 -643.308)" fill="#606060"/>
    </g>
    <path id="Path_3241" data-name="Path 3241" d="M191.078,630.51h-.6L189.4,633.3h.6l.23-.634h1.114l.243.634h.613ZM190.4,632.2l.376-1.035.384,1.035Z" transform="translate(-177.062 -627.731)" fill="#606060"/>
    <path id="Path_3242" data-name="Path 3242" d="M205.045,652.318h-.612l-.244.634h-1.114l-.23-.634h-.6l1.086,2.788h.6Zm-1.036,1.1-.384,1.035-.377-1.035Z" transform="translate(-177.062 -627.731)" fill="#606060"/>
    <g id="Group_23" data-name="Group 23" transform="translate(12.803 7.272)">
      <path id="Path_3243" data-name="Path 3243" d="M208.531,665.647a2.209,2.209,0,0,1-.549-.069l-16.439-4.188a2.23,2.23,0,0,1-1.609-2.708.585.585,0,0,1,1.133.288,1.058,1.058,0,0,0,.765,1.288l16.438,4.188a1.063,1.063,0,0,0,1.288-.765l6.3-24.741a1.059,1.059,0,0,0-.766-1.288l-5.88-1.5a.584.584,0,1,1,.288-1.131l5.881,1.5a2.23,2.23,0,0,1,1.609,2.708l-6.3,24.741A2.231,2.231,0,0,1,208.531,665.647Z" transform="translate(-189.865 -635.003)" fill="#606060"/>
    </g>
  </g>
  <g id="Rectangle_124" data-name="Rectangle 124" fill="none" stroke="#e6e6e6" stroke-width="2">
    <rect width="55" height="55" rx="11" stroke="none"/>
    <rect x="1" y="1" width="53" height="53" rx="10" fill="none"/>
  </g>
</svg>
