<svg xmlns="http://www.w3.org/2000/svg" xmlns:xlink="http://www.w3.org/1999/xlink" width="288.89" height="572.886" viewBox="0 0 288.89 572.886">
  <defs>
    <clipPath id="clip-path">
      <path id="Path_6991" data-name="Path 6991" d="M-45.7,664.226h19.26V539.967c-11.483,0-20.791-7.375-20.791-16.473s9.309-16.473,20.791-16.473V91.34H-45.7c0,4.215-4.311,7.63-9.629,7.63s-9.629-3.416-9.629-7.63h-19.26c0,4.215-4.311,7.63-9.629,7.63s-9.629-3.416-9.629-7.63h-19.26c0,4.215-4.311,7.63-9.629,7.63s-9.629-3.416-9.629-7.63h-19.26c0,4.215-4.311,7.63-9.629,7.63s-9.629-3.416-9.629-7.63h-19.259c0,4.215-4.313,7.63-9.631,7.63s-9.629-3.416-9.629-7.63H-238.29c0,4.215-4.311,7.63-9.631,7.63s-9.629-3.416-9.629-7.63h-19.259c0,4.215-4.311,7.63-9.631,7.63s-9.629-3.416-9.629-7.63h-19.259V507.022c11.483,0,20.791,7.375,20.791,16.473s-9.309,16.473-20.791,16.473V664.226h19.259c0-4.213,4.311-7.629,9.629-7.629s9.631,3.416,9.631,7.629h19.259c0-4.213,4.311-7.629,9.629-7.629s9.631,3.416,9.631,7.629h19.259c0-4.213,4.311-7.629,9.629-7.629s9.631,3.416,9.631,7.629h19.259c0-4.213,4.311-7.629,9.629-7.629s9.629,3.416,9.629,7.629h19.26c0-4.213,4.311-7.629,9.629-7.629s9.629,3.416,9.629,7.629h19.26c0-4.213,4.311-7.629,9.629-7.629s9.629,3.416,9.629,7.629h19.26c0-4.213,4.311-7.629,9.629-7.629S-45.7,660.013-45.7,664.226Z" transform="translate(315.327 -91.34)" fill="none"/>
    </clipPath>
  </defs>
  <g id="Group_741" data-name="Group 741" clip-path="url(#clip-path)">
    <path id="Path_6984" data-name="Path 6984" d="M-45.7,664.226h19.26V539.967c-11.483,0-20.791-7.375-20.791-16.473s9.309-16.473,20.791-16.473V91.34H-45.7c0,4.215-4.311,7.63-9.629,7.63s-9.629-3.416-9.629-7.63h-19.26c0,4.215-4.311,7.63-9.629,7.63s-9.629-3.416-9.629-7.63h-19.26c0,4.215-4.311,7.63-9.629,7.63s-9.629-3.416-9.629-7.63h-19.26c0,4.215-4.311,7.63-9.629,7.63s-9.629-3.416-9.629-7.63h-19.259c0,4.215-4.313,7.63-9.631,7.63s-9.629-3.416-9.629-7.63H-238.29c0,4.215-4.311,7.63-9.631,7.63s-9.629-3.416-9.629-7.63h-19.259c0,4.215-4.311,7.63-9.631,7.63s-9.629-3.416-9.629-7.63h-19.259V507.022c11.483,0,20.791,7.375,20.791,16.473s-9.309,16.473-20.791,16.473V664.226h19.259c0-4.213,4.311-7.629,9.629-7.629s9.631,3.416,9.631,7.629h19.259c0-4.213,4.311-7.629,9.629-7.629s9.631,3.416,9.631,7.629h19.259c0-4.213,4.311-7.629,9.629-7.629s9.631,3.416,9.631,7.629h19.259c0-4.213,4.311-7.629,9.629-7.629s9.629,3.416,9.629,7.629h19.26c0-4.213,4.311-7.629,9.629-7.629s9.629,3.416,9.629,7.629h19.26c0-4.213,4.311-7.629,9.629-7.629s9.629,3.416,9.629,7.629h19.26c0-4.213,4.311-7.629,9.629-7.629S-45.7,660.013-45.7,664.226Z" transform="translate(315.327 -91.34)" fill="#fd5d14"/>
    <g id="Group_740" data-name="Group 740" transform="translate(-45.731 -64.732)" opacity="0.52">
      <path id="Path_6985" data-name="Path 6985" d="M-312.19,286.733a21.119,21.119,0,0,1-2.643-1.99.419.419,0,0,0,.468-.184c8.126-16.8,29.516-23.323,49.378-28.573,15.938-4.213,26.167-13.036,26.133-26.841-.039-15.038-12.883-27.477-24.116-38.636-7.743-7.691-15.031-15.436-19.507-24.693-4.339-8.974-6.454-18.734-7.717-28.255a122.869,122.869,0,0,1-.025-32.1c1.212-9.263,3.656-18.43-1.24-27.281-.333-.6-1.589-.174-1.337.447.146.355.257.714.385,1.072-16.486-11.42-38.655.811-46.064,14.2-10.387,18.773-10.033,42.886.11,61.624a67.22,67.22,0,0,0,21.887,23.745c10.847,7.232,24.694,10.082,35.97,16.709,12.944,7.607,27.623,21.348,23.132,35.094-2.1,6.441-8.386,11.841-16.312,14.037-7.3,2.021-15.345,1.513-22.772,3.252-11.227,2.627-22.126,8.749-25.511,18.026-2.909,7.975-.043,16.712,8.432,21.737C-312.537,288.714-311.2,287.355-312.19,286.733Z" transform="translate(346.121 -34.452)" fill="#a34333"/>
      <path id="Path_6986" data-name="Path 6986" d="M-191.158,399.23c-1.729-1.923-4.455-2.565-6.643-4.091-20.818-14.538-28.622-39.537-19.069-60.229,4.323-9.365,12.666-19.088,25.588-21.635l7.659-1.509c-1.536.3-5.98-3.016-7.332-3.649a84.016,84.016,0,0,0-34.775-7.673c-13.038.049-26.16,4.258-33.006,13.4a42.962,42.962,0,0,0-7.152,34.732c6.583,28.508,41.544,44.015,73.856,51.518C-190.409,400.468-190.519,399.941-191.158,399.23Z" transform="translate(384.53 74.826)" fill="#a34333"/>
      <path id="Path_6987" data-name="Path 6987" d="M-66.2,574.8c14.214-27.967,20.974-60.547,11.215-90.118a88.713,88.713,0,0,0-20.429-33.894c-11.653-12.074-27.75-19.134-42.212-28.728-11.705-7.766-43.192-27.388-28.444-40.911,13.5-12.38,37.591-1.549,54.769-4,14.894-2.121,20.6-11.9,21.2-23,.8-14.9-2.764-30.4-8.818-44.464-3.457-8.03-8.746-15.485-12.1-23.521-3.475-8.321-3.83-20.512,7.608-25.349,4.755-2.011,12.764-1.421,15.58-5.71a.745.745,0,0,0,.4-.394,2.822,2.822,0,0,0,.116-.591,4.073,4.073,0,0,0-.089-3.463,15.941,15.941,0,0,0-.481-2.418c.241-.123.38-.405.14-.633-.16-.153-.34-.276-.5-.422-.6-1.447-1.525-2.4-2.857-2.054-8.826-5.015-21.918-2.69-29,3.886-11.6,10.768-9.2,27-5.9,39.78,4.729,18.316,14.7,38.872,3.829,57.013a34.346,34.346,0,0,1-22.19,15.867c-10.779,2.26-21.771-.945-31.978-3.478-14.884-3.692-31.065-5.957-43.237,3.676-11.276,8.924-13.744,22.423-8.652,34.074,6.065,13.877,20.218,24.036,35.167,32.06,18.109,9.723,37.114,17.922,53.837,29.236,39.233,26.539,64.05,63.97,55.5,105.423-1.441,3.912-2.976,7.8-4.579,11.664C-68.765,575.419-66.714,575.808-66.2,574.8Z" transform="translate(411.777 46.683)" fill="#a34333"/>
      <path id="Path_6988" data-name="Path 6988" d="M-327.017,432.688c-1.516-3.679-1.173-8.584-1.289-12.417a137.894,137.894,0,0,1,1.678-24.4c2.427-16.317,7.039-32.555,12.354-48.423,4.73-14.125,11.163-28.537,24.183-39.281,13.528-11.162,31.858-16.508,49.771-21.708,13.1-3.8,26.185-9.268,28.233-21.336,2.174-12.8-7.543-23.761-15.862-33.934-21.228-25.956-34.074-55.92-36.6-86.818C-270.578,70.759-160.063,30.065-81.6,55.194c39.22,12.559,70.686,44.057,68.907,78.655-.048.919-27.275-4.926-29.61-5.5-32.016-7.908-66.868-7.338-99.275-1.2-29.491,5.582-56.049,18.045-68.682,40.938-17.38,31.493,5.324,63.112,29.051,87.957,13.367,14,29.908,27.989,36.955,44.958,3.815,9.19,5.513,23.586-6.912,29.314-9.346,4.308-21.437,2.357-31.019-.373-17.027-4.849-31.8-14.208-49.676-17.286a59.4,59.4,0,0,0-45.068,10.7c-16.2,11.861-23.6,29.568-28.463,46.133-5.811,19.795-7.681,40.577-4.393,60.761a.629.629,0,0,0-.6.25C-313.953,435.656-322.823,442.866-327.017,432.688Z" transform="translate(354.739 -47.752)" fill="#a34333"/>
      <path id="Path_6989" data-name="Path 6989" d="M-266.725,678.169a38.225,38.225,0,0,0,1.806-7.935c9.361-2.885,15.849-9.778,20.57-17a138.639,138.639,0,0,0,17.8-41.248c3.511-13.924,2.844-27.851-4.31-41-7.914-14.549-21.151-26.809-31.56-40.215-20.733-26.7-34.689-56.61-41.131-87.531a190.993,190.993,0,0,1-3.806-48.695c.845-16.528,2.86-34.316,13.142-49.069,9.15-13.127,25.4-22.435,43.752-25.873,20.705-3.879,38.74,1.8,57.65,7.993,15.531,5.089,34.194,9.877,50.469,3.793,13.755-5.141,20.864-16.81,23.874-28.07a66.543,66.543,0,0,0-2.744-41.712c-6.021-15.2-18.21-27.207-29.841-39.9-12.622-13.779-22.156-29-27.519-45.53-5.205-16.039-7.5-34.962,7.963-48.026,30.663-25.907,82.673-9.309,111.3,10.112,26.094,17.7,43.97,42.919,49.378,69.807,2.654,13.2,4.408,31.328-5.2,43.093-7.206,8.823-18.336,7.146-29.742,5.792-7.874-.937-16.081-1.286-23.861.313-14.628,3.009-23.231,13.057-25.487,24.489-2.976,15.083,4.53,30.089,7.218,44.838,3.214,17.643,1.69,37.075-14.475,50.713-15.221,12.842-34.778,12.473-54.185,6.38-15.645-4.913-30.135-10.1-47.343-9.662-14.958.386-30,4.24-41.8,11.633-25.818,16.177-28.292,46.063-16.1,68.739,6.61,12.3,17.462,22.909,31.349,30.5,14.824,8.106,32.091,12.675,49.039,17.128,17.324,4.553,34.705,9.145,50.156,17.022a134.354,134.354,0,0,1,37.071,27.7c20.047,21.433,31.214,48.259,29.8,75a83.284,83.284,0,0,1-14.389,42.828c-10.272,14.938-26.53,25.732-45.418,33.472a208.113,208.113,0,0,1-62.484,15.078c-21.084,1.588-41.946-1.215-61.875-6.668-10.488-2.869-20.659-6.378-30.673-10.164C-273.289,690.8-268.952,685.117-266.725,678.169Z" transform="translate(364.807 -15.209)" fill="#a34333"/>
    </g>
    <path id="Path_6990" data-name="Path 6990" d="M-45.7,664.226h19.26V539.967c-11.483,0-20.791-7.375-20.791-16.473s9.309-16.473,20.791-16.473V91.34H-45.7c0,4.215-4.311,7.63-9.629,7.63s-9.629-3.416-9.629-7.63h-19.26c0,4.215-4.311,7.63-9.629,7.63s-9.629-3.416-9.629-7.63h-19.26c0,4.215-4.311,7.63-9.629,7.63s-9.629-3.416-9.629-7.63h-19.26c0,4.215-4.311,7.63-9.629,7.63s-9.629-3.416-9.629-7.63h-19.259c0,4.215-4.313,7.63-9.631,7.63s-9.629-3.416-9.629-7.63H-238.29c0,4.215-4.311,7.63-9.631,7.63s-9.629-3.416-9.629-7.63h-19.259c0,4.215-4.311,7.63-9.631,7.63s-9.629-3.416-9.629-7.63h-19.259V507.022c11.483,0,20.791,7.375,20.791,16.473s-9.309,16.473-20.791,16.473V664.226h19.259c0-4.213,4.311-7.629,9.629-7.629s9.631,3.416,9.631,7.629h19.259c0-4.213,4.311-7.629,9.629-7.629s9.631,3.416,9.631,7.629h19.259c0-4.213,4.311-7.629,9.629-7.629s9.631,3.416,9.631,7.629h19.259c0-4.213,4.311-7.629,9.629-7.629s9.629,3.416,9.629,7.629h19.26c0-4.213,4.311-7.629,9.629-7.629s9.629,3.416,9.629,7.629h19.26c0-4.213,4.311-7.629,9.629-7.629s9.629,3.416,9.629,7.629h19.26c0-4.213,4.311-7.629,9.629-7.629S-45.7,660.013-45.7,664.226Z" transform="translate(315.327 -91.34)" fill="none"/>
  </g>
</svg>
