<svg xmlns="http://www.w3.org/2000/svg" width="231.748" height="145.069" viewBox="0 0 231.748 145.069">
  <path id="Path_6992" data-name="Path 6992" d="M-64.658,514.855c.107,0,.212.013.318.016V407.09a66.97,66.97,0,0,1-29.614-27.675H-266.472a66.982,66.982,0,0,1-29.616,27.675V514.871c.107,0,.211-.016.318-.016a9.631,9.631,0,0,1,9.631,9.629h19.259a9.629,9.629,0,0,1,9.629-9.629,9.629,9.629,0,0,1,9.629,9.629h19.26a9.629,9.629,0,0,1,9.629-9.629,9.629,9.629,0,0,1,9.629,9.629h19.26a9.629,9.629,0,0,1,9.629-9.629,9.629,9.629,0,0,1,9.629,9.629h19.26a9.629,9.629,0,0,1,9.629-9.629,9.629,9.629,0,0,1,9.629,9.629h19.26a9.629,9.629,0,0,1,9.629-9.629,9.629,9.629,0,0,1,9.629,9.629h19.26A9.629,9.629,0,0,1-64.658,514.855Z" transform="translate(296.088 -379.415)" fill="#292947"/>
</svg>
