<svg xmlns="http://www.w3.org/2000/svg" width="55" height="55" viewBox="0 0 55 55">
  <g id="Group_63" data-name="Group 63" transform="translate(-269.195 -621.084)">
    <path id="Path_3294" data-name="Path 3294" d="M313.389,639.8V658.35l-4.946,4.947H282.474A2.473,2.473,0,0,1,280,660.823V639.8a2.473,2.473,0,0,1,2.473-2.473h28.442A2.472,2.472,0,0,1,313.389,639.8Z" fill="#fff"/>
    <path id="Path_3295" data-name="Path 3295" d="M313.389,639.8V658.35l-4.946,4.947H296.7V637.328h14.221A2.472,2.472,0,0,1,313.389,639.8Z" fill="#fd5d14"/>
    <path id="Path_3296" data-name="Path 3296" d="M313.389,639.8v3.71H280V639.8a2.473,2.473,0,0,1,2.473-2.473h28.442A2.472,2.472,0,0,1,313.389,639.8Z" fill="#fff"/>
    <path id="Path_3297" data-name="Path 3297" d="M308.443,658.35h4.946l-4.945,4.948Z" fill="#1c1c1c"/>
    <path id="Path_3298" data-name="Path 3298" d="M313.389,639.8v3.71H296.7v-6.183h14.221A2.472,2.472,0,0,1,313.389,639.8Z" fill="#fff"/>
    <g id="Group_62" data-name="Group 62">
      <path id="Path_3299" data-name="Path 3299" d="M310.916,636.71h-2.473v-1.237a2.473,2.473,0,1,0-4.946,0v1.237h-4.328v-1.237a2.474,2.474,0,0,0-4.947,0v1.237h-4.328v-1.237a2.473,2.473,0,1,0-4.946,0v1.237h-2.474a3.1,3.1,0,0,0-3.091,3.091v21.022a3.1,3.1,0,0,0,3.091,3.092h25.969a.621.621,0,0,0,.437-.181l4.947-4.947a.7.7,0,0,0,.181-.437V639.8A3.1,3.1,0,0,0,310.916,636.71Zm-6.183-1.237a1.236,1.236,0,0,1,2.473,0v1.237h-2.473Zm-9.274,0a1.236,1.236,0,0,1,2.473,0v1.237h-2.473Zm-9.275,0a1.237,1.237,0,0,1,2.473,0v1.237h-2.473Zm-3.71,2.473h2.474v1.237a2.473,2.473,0,1,0,4.946,0h-1.237a1.237,1.237,0,1,1-2.473,0v-1.237h8.038v1.237a2.474,2.474,0,0,0,4.947,0h-1.237a1.236,1.236,0,1,1-2.473,0v-1.237H303.5v1.237a2.473,2.473,0,1,0,4.946,0h-1.237a1.236,1.236,0,1,1-2.473,0v-1.237h6.183a1.857,1.857,0,0,1,1.855,1.855v3.092H280.62V639.8A1.857,1.857,0,0,1,282.474,637.946Zm-1.854,22.877V644.129h32.151v13.6h-4.328a.618.618,0,0,0-.618.618v4.328H282.474A1.857,1.857,0,0,1,280.62,660.823Zm28.441.981v-2.835H311.9Z" fill="#606060"/>
      <rect id="Rectangle_4" data-name="Rectangle 4" width="2.473" height="2.473" transform="translate(295.459 652.167)" fill="#606060"/>
      <rect id="Rectangle_5" data-name="Rectangle 5" width="2.473" height="2.473" transform="translate(295.459 657.114)" fill="#606060"/>
      <rect id="Rectangle_6" data-name="Rectangle 6" width="2.473" height="2.473" transform="translate(295.459 647.221)" fill="#606060"/>
      <rect id="Rectangle_7" data-name="Rectangle 7" width="2.473" height="2.473" transform="translate(289.894 652.167)" fill="#606060"/>
      <rect id="Rectangle_8" data-name="Rectangle 8" width="2.473" height="2.473" transform="translate(289.894 657.114)" fill="#606060"/>
      <rect id="Rectangle_9" data-name="Rectangle 9" width="2.473" height="2.473" transform="translate(289.894 647.221)" fill="#606060"/>
      <rect id="Rectangle_10" data-name="Rectangle 10" width="2.473" height="2.473" transform="translate(284.329 652.167)" fill="#606060"/>
      <rect id="Rectangle_11" data-name="Rectangle 11" width="2.473" height="2.473" transform="translate(284.329 657.114)" fill="#606060"/>
      <rect id="Rectangle_12" data-name="Rectangle 12" width="2.473" height="2.473" transform="translate(284.329 647.221)" fill="#606060"/>
      <rect id="Rectangle_13" data-name="Rectangle 13" width="2.473" height="2.473" transform="translate(301.023 652.167)" fill="#606060"/>
      <rect id="Rectangle_14" data-name="Rectangle 14" width="2.473" height="2.473" transform="translate(301.023 657.114)" fill="#606060"/>
      <rect id="Rectangle_15" data-name="Rectangle 15" width="2.473" height="2.473" transform="translate(301.023 647.221)" fill="#606060"/>
      <rect id="Rectangle_16" data-name="Rectangle 16" width="2.473" height="2.473" transform="translate(306.588 652.167)" fill="#606060"/>
      <rect id="Rectangle_17" data-name="Rectangle 17" width="2.473" height="2.473" transform="translate(306.588 647.221)" fill="#606060"/>
    </g>
  </g>
  <g id="Rectangle_124" data-name="Rectangle 124" fill="none" stroke="#e6e6e6" stroke-width="2">
    <rect width="55" height="55" rx="11" stroke="none"/>
    <rect x="1" y="1" width="53" height="53" rx="10" fill="none"/>
  </g>
</svg>
