<svg xmlns="http://www.w3.org/2000/svg" xmlns:xlink="http://www.w3.org/1999/xlink" width="311" height="66.145" viewBox="0 0 311 66.145">
  <defs>
    <clipPath id="clip-path">
      <rect id="Rectangle_143" data-name="Rectangle 143" width="311" height="66.145" fill="none"/>
    </clipPath>
  </defs>
  <g id="Group_846" data-name="Group 846" transform="translate(0 0)">
    <g id="Group_845" data-name="Group 845" transform="translate(0 0)">
      <g id="Group_844" data-name="Group 844" clip-path="url(#clip-path)">
        <path id="Path_8889" data-name="Path 8889" d="M225.4,66.145H3.687A3.687,3.687,0,0,1,0,62.458V3.687A3.687,3.687,0,0,1,3.687,0H225.4a3.687,3.687,0,0,1,3.687,3.687V62.458a3.687,3.687,0,0,1-3.687,3.687" transform="translate(0 0)" fill="black"/>
        <path id="Path_8890" data-name="Path 8890" d="M232.775,66.145h74.538A3.687,3.687,0,0,0,311,62.458V3.687A3.687,3.687,0,0,0,307.313,0H232.775a3.687,3.687,0,0,0-3.687,3.687V62.458a3.687,3.687,0,0,0,3.687,3.687" transform="translate(0 0)" fill="#fd5d14"/>
        <path id="Path_8891" data-name="Path 8891" d="M89.9,26.521,81.247,57.155H0V26.521Z" transform="translate(0 0)" fill="#fd5d14"/>
        <path id="Path_8892" data-name="Path 8892" d="M95.564,26.521,86.907,57.155H234.082V26.521Z" transform="translate(0 0)" fill="#fd5d14"/>
        <path id="Path_8893" data-name="Path 8893" d="M115.106,40.492l-2.911.029q-.408,0-.5-.465a3.829,3.829,0,0,0-1.514-2.533,5.547,5.547,0,0,0-7.1.582,6.187,6.187,0,0,0-.029,8.209,5.125,5.125,0,0,0,3.9,1.6,5.527,5.527,0,0,0,3.231-.873,3.42,3.42,0,0,0,1.485-2.358.52.52,0,0,1,.553-.495h2.911q.495,0,.495.437a5.7,5.7,0,0,1-2.445,4.716,10.011,10.011,0,0,1-6.288,1.863,9.459,9.459,0,0,1-6.725-2.5,8.525,8.525,0,0,1-2.707-6.52,8.493,8.493,0,0,1,2.707-6.492,9.464,9.464,0,0,1,6.725-2.533,9.162,9.162,0,0,1,6.317,2.1,6.341,6.341,0,0,1,2.358,4.862c0,.252-.156.378-.466.378" transform="translate(0 0)" fill="#fff"/>
        <path id="Path_8894" data-name="Path 8894" d="M127.536,33.156h.059a9.781,9.781,0,0,1,6.812,2.533,8.367,8.367,0,0,1,2.794,6.492,8.344,8.344,0,0,1-2.794,6.521,10.7,10.7,0,0,1-13.683,0,8.344,8.344,0,0,1-2.794-6.521,8.367,8.367,0,0,1,2.794-6.492,9.783,9.783,0,0,1,6.812-2.533m4.105,4.891a5.994,5.994,0,0,0-8.093,0,5.432,5.432,0,0,0-1.659,4.134,5.428,5.428,0,0,0,1.659,4.133,5.991,5.991,0,0,0,8.093,0,5.428,5.428,0,0,0,1.659-4.133,5.432,5.432,0,0,0-1.659-4.134" transform="translate(0 0)" fill="#fff"/>
        <path id="Path_8895" data-name="Path 8895" d="M154.056,42.53l-.175-8.733a.4.4,0,0,1,.379-.379h3.26a.4.4,0,0,1,.379.379v8.762a8.262,8.262,0,0,1-2.387,6.375,10.629,10.629,0,0,1-12.984,0,8.262,8.262,0,0,1-2.387-6.375V33.8a.4.4,0,0,1,.378-.379h3.261a.4.4,0,0,1,.378.379V42.53q0,5.357,4.949,5.356,5.037,0,4.949-5.356" transform="translate(0 0)" fill="#fff"/>
        <path id="Path_8896" data-name="Path 8896" d="M165.555,50.914h-3.231a.264.264,0,0,1-.234-.087.535.535,0,0,1-.087-.263V33.8a.532.532,0,0,1,.087-.262.278.278,0,0,1,.234-.117h7.451a7.506,7.506,0,0,1,5.211,1.776,6.016,6.016,0,0,1,2.009,4.745,5.9,5.9,0,0,1-2.037,4.716,7.77,7.77,0,0,1-5.241,1.747h-3.843v4.133a.418.418,0,0,1-.087.262.274.274,0,0,1-.232.117m3.9-14.119h-3.522v6.521h3.522a3.648,3.648,0,0,0,2.648-.9,3.176,3.176,0,0,0,.961-2.387,2.987,2.987,0,0,0-.989-2.358,3.89,3.89,0,0,0-2.62-.873" transform="translate(0 0)" fill="#fff"/>
        <path id="Path_8897" data-name="Path 8897" d="M188.552,33.156h.059a9.781,9.781,0,0,1,6.812,2.533,8.367,8.367,0,0,1,2.794,6.492,8.344,8.344,0,0,1-2.794,6.521,10.7,10.7,0,0,1-13.683,0,8.344,8.344,0,0,1-2.794-6.521,8.367,8.367,0,0,1,2.794-6.492,9.781,9.781,0,0,1,6.812-2.533m4.1,4.891a5.994,5.994,0,0,0-8.093,0,5.432,5.432,0,0,0-1.659,4.134,5.428,5.428,0,0,0,1.659,4.133,5.991,5.991,0,0,0,8.093,0,5.428,5.428,0,0,0,1.659-4.133,5.432,5.432,0,0,0-1.659-4.134" transform="translate(0 0)" fill="#fff"/>
        <path id="Path_8898" data-name="Path 8898" d="M219.031,50.914h-2.8l-8.908-9.083q-.408-.406-.873-.96l-.786-.932-.291-.349h-.087V50.565a.528.528,0,0,1-.088.262.262.262,0,0,1-.233.087h-3.26a.262.262,0,0,1-.233-.087.525.525,0,0,1-.087-.262V33.8a.522.522,0,0,1,.087-.262.276.276,0,0,1,.233-.117h2.678l8.821,8.966q.261.262.96,1.019c.292.311.563.631.816.961l.291.379h.116V33.768a.4.4,0,0,1,.378-.379h3.261a.4.4,0,0,1,.378.379V50.535a.4.4,0,0,1-.378.379" transform="translate(0 0)" fill="#fff"/>
        <path id="Path_8899" data-name="Path 8899" d="M229.56,55.659h-.944V52.6h.944Zm0-6.122h-.944V46.476h.944Zm0-6.122h-.944V40.354h.944Zm0-6.123h-.944V34.231h.944Zm0-6.122h-.944V28.109h.944Zm0-6.122h-.944V21.987h.944Zm0-6.122h-.944V15.865h.944Zm0-6.122h-.944V9.743h.944Zm0-6.123h-.944V3.62h.944Z" transform="translate(0 0)" fill="#fff"/>
        <rect id="Rectangle_142" data-name="Rectangle 142" width="0.944" height="3.805" transform="translate(228.616 58.72)" fill="#fff"/>
        <path id="Path_8900" data-name="Path 8900" d="M17.172,32.6H17.2a4.2,4.2,0,0,1,2.929,1.088,3.857,3.857,0,0,1,0,5.594,4.251,4.251,0,0,1-2.941,1.064,4.251,4.251,0,0,1-2.941-1.064,3.857,3.857,0,0,1,0-5.594A4.2,4.2,0,0,1,17.172,32.6m1.764,2.1a2.576,2.576,0,0,0-3.479,0,2.571,2.571,0,0,0,0,3.554,2.576,2.576,0,0,0,3.479,0,2.571,2.571,0,0,0,0-3.554" transform="translate(0 0)" fill="#fff"/>
        <path id="Path_8901" data-name="Path 8901" d="M30.273,40.233h-1.2l-3.83-3.9q-.176-.175-.375-.413l-.338-.4-.125-.15h-.038v4.718a.22.22,0,0,1-.037.112.111.111,0,0,1-.1.038h-1.4a.111.111,0,0,1-.1-.038.223.223,0,0,1-.038-.112V32.875a.229.229,0,0,1,.038-.113.119.119,0,0,1,.1-.05h1.151l3.792,3.854c.075.075.213.222.413.438q.188.2.35.413l.126.163h.05V32.862a.172.172,0,0,1,.162-.162h1.4a.154.154,0,0,1,.113.05.156.156,0,0,1,.05.112V40.07a.157.157,0,0,1-.05.113.158.158,0,0,1-.113.05" transform="translate(0 0)" fill="#fff"/>
        <path id="Path_8902" data-name="Path 8902" d="M37.857,37.1l-3.992.025v1.7h4.4a.23.23,0,0,1,.175.175v1.076a.171.171,0,0,1-.163.163H32.326a.135.135,0,0,1-.1-.038.18.18,0,0,1-.038-.112V32.887a.183.183,0,0,1,.038-.113.119.119,0,0,1,.1-.05h5.881a.172.172,0,0,1,.113.063.17.17,0,0,1,.063.112v1.076a.157.157,0,0,1-.05.113.174.174,0,0,1-.113.063H33.89v1.526h3.954a.237.237,0,0,1,.176.176v1.076a.155.155,0,0,1-.05.112.174.174,0,0,1-.113.063" transform="translate(0 0)" fill="#fff"/>
        <path id="Path_8903" data-name="Path 8903" d="M45.9,40.233l-3.179.025a.134.134,0,0,1-.1-.037.226.226,0,0,1-.038-.113V32.9a.229.229,0,0,1,.038-.113.119.119,0,0,1,.1-.05H45.89a4.307,4.307,0,0,1,2.978,1.026,3.469,3.469,0,0,1,1.164,2.716,3.564,3.564,0,0,1-1.089,2.741,4.385,4.385,0,0,1-3.04,1.013m-.013-6.044-1.627.012v4.656H45.9a2.438,2.438,0,0,0,1.8-.626,2.317,2.317,0,0,0,.626-1.714,2.215,2.215,0,0,0-.676-1.69,2.464,2.464,0,0,0-1.764-.638" transform="translate(0 0)" fill="#fff"/>
        <path id="Path_8904" data-name="Path 8904" d="M57.266,40.07,56.7,38.932H53.049L52.51,40.07a.265.265,0,0,1-.262.163h-1.49c-.066,0-.1-.029-.1-.088a.325.325,0,0,1,.05-.15l3.529-7.27h1.3l3.529,7.27a.325.325,0,0,1,.05.15c0,.059-.034.088-.1.088H57.529a.265.265,0,0,1-.263-.163m-2.941-3.854-.688,1.377h2.477L55.439,36.2q-.088-.189-.238-.576l-.075-.2q-.037-.1-.075-.207c-.025-.071-.042-.119-.05-.144l-.075-.213h-.075a10.593,10.593,0,0,1-.526,1.352" transform="translate(0 0)" fill="#fff"/>
        <path id="Path_8905" data-name="Path 8905" d="M62.422,37.229l-2.978-4.305a.33.33,0,0,1-.063-.15.066.066,0,0,1,.074-.075h1.59a.339.339,0,0,1,.3.15l1.288,1.815a4.26,4.26,0,0,1,.289.425c.032.059.078.136.136.232s.1.16.114.194l.1.175h.05a8.2,8.2,0,0,1,.626-1.014l1.289-1.814a.318.318,0,0,1,.3-.151h1.589a.066.066,0,0,1,.075.075.327.327,0,0,1-.062.151l-2.991,4.292v2.853a.149.149,0,0,1-.162.15h-1.4a.149.149,0,0,1-.162-.15Z" transform="translate(0 0)" fill="#fff"/>
        <path id="Path_8906" data-name="Path 8906" d="M17.172,43.987H17.2a4.2,4.2,0,0,1,2.929,1.088,3.857,3.857,0,0,1,0,5.594,4.251,4.251,0,0,1-2.941,1.064,4.251,4.251,0,0,1-2.941-1.064,3.857,3.857,0,0,1,0-5.594,4.2,4.2,0,0,1,2.929-1.088m1.764,2.1a2.576,2.576,0,0,0-3.479,0,2.571,2.571,0,0,0,0,3.554,2.576,2.576,0,0,0,3.479,0,2.571,2.571,0,0,0,0-3.554" transform="translate(0 0)" fill="#fff"/>
        <path id="Path_8907" data-name="Path 8907" d="M30.273,51.62h-1.2l-3.83-3.9q-.176-.176-.375-.413l-.338-.4-.125-.15h-.038V51.47a.22.22,0,0,1-.037.112.113.113,0,0,1-.1.038h-1.4a.113.113,0,0,1-.1-.038.223.223,0,0,1-.038-.112V44.262a.226.226,0,0,1,.038-.113.119.119,0,0,1,.1-.05h1.151l3.792,3.854q.112.113.413.438.188.2.35.413l.126.163h.05V44.249a.17.17,0,0,1,.162-.162h1.4a.157.157,0,0,1,.113.049.16.16,0,0,1,.05.113v7.208a.157.157,0,0,1-.05.113.158.158,0,0,1-.113.05" transform="translate(0 0)" fill="#fff"/>
        <path id="Path_8908" data-name="Path 8908" d="M33.9,44.261v5.944h3.7a.234.234,0,0,1,.175.175v1.077a.151.151,0,0,1-.05.112.152.152,0,0,1-.112.05H32.363a.112.112,0,0,1-.1-.037.226.226,0,0,1-.038-.113V44.261a.229.229,0,0,1,.038-.113.119.119,0,0,1,.1-.05h1.4a.119.119,0,0,1,.1.05.229.229,0,0,1,.038.113" transform="translate(0 0)" fill="#fff"/>
        <path id="Path_8909" data-name="Path 8909" d="M41.21,48.616l-2.978-4.305a.33.33,0,0,1-.063-.15.066.066,0,0,1,.075-.075h1.59a.337.337,0,0,1,.3.15l1.289,1.815a4.424,4.424,0,0,1,.288.425c.033.059.079.136.137.232s.1.16.113.194l.1.175h.05a8.2,8.2,0,0,1,.626-1.014l1.289-1.814a.317.317,0,0,1,.3-.151h1.589a.066.066,0,0,1,.075.075.327.327,0,0,1-.062.151l-2.991,4.292v2.853a.157.157,0,0,1-.05.113.154.154,0,0,1-.113.037h-1.4a.154.154,0,0,1-.113-.037.157.157,0,0,1-.05-.113Z" transform="translate(0 0)" fill="#fff"/>
      </g>
    </g>
    <text id="成為VIP會員_天天領取一場VIP會員賽" data-name="成為VIP會員，天天領取一場VIP會員賽" transform="translate(11.327 17.605)" fill="#fff" font-size="12" font-family="YuGothicUI-Regular, Yu Gothic UI"><tspan x="0" y="0">成為</tspan><tspan y="0" font-family="SegoeUI, Segoe UI">VIP</tspan><tspan y="0">會員，天天領取一場</tspan><tspan y="0" font-family="SegoeUI, Segoe UI">VIP</tspan><tspan y="0">會員賽</tspan></text>
  </g>
  <g id="Group_843" data-name="Group 843" transform="translate(-37 -479)">
    <path id="Path_8910" data-name="Path 8910" d="M2,0H57a2,2,0,0,1,2,2V18a2,2,0,0,1-2,2H2a2,2,0,0,1-2-2V2A2,2,0,0,1,2,0Z" transform="translate(278 502)" fill="#fff"/>
    <text id="升級後領取" transform="translate(307 516)" fill="#fd5d14" font-size="10" font-family="YuGothicUI-Bold, Yu Gothic UI" font-weight="700"><tspan x="-25" y="0">升級後領取</tspan></text>
  </g>
</svg>
