<svg xmlns="http://www.w3.org/2000/svg" width="55" height="55" viewBox="0 0 55 55">
  <g id="Group_61" data-name="Group 61" transform="translate(-85.5 -621.127)">
    <path id="Path_3266" data-name="Path 3266" d="M105.575,665.5l-1.769-6.452H97.355L95.586,665.5Z" fill="#1c1c1c"/>
    <path id="Path_3267" data-name="Path 3267" d="M112.027,657.758l-1.769-6.452h-6.452l-1.769,6.452Z" fill="#1c1c1c"/>
    <g id="Group_44" data-name="Group 44">
      <path id="Path_3268" data-name="Path 3268" d="M105.694,665.594a.484.484,0,0,1-.469-.366l-1.8-7.147H96.442L94.651,665.2a.484.484,0,0,1-.939-.236l1.883-7.489a.485.485,0,0,1,.47-.366h7.741a.485.485,0,0,1,.47.366l1.888,7.513a.484.484,0,0,1-.352.587A.477.477,0,0,1,105.694,665.594Z" fill="#606060"/>
    </g>
    <path id="Path_3269" data-name="Path 3269" d="M125.253,657.758l-1.769-6.452h-6.452l-1.769,6.452Z" fill="#1c1c1c"/>
    <path id="Path_3270" data-name="Path 3270" d="M118.8,665.5l-1.769-6.452h-6.452l-1.769,6.452Z" fill="#1c1c1c"/>
    <g id="Group_45" data-name="Group 45">
      <path id="Path_3271" data-name="Path 3271" d="M107.416,665.531a.53.53,0,0,1-.118-.014.486.486,0,0,1-.352-.588l1.875-7.45a.484.484,0,0,1,.469-.366h7.742a.482.482,0,0,1,.469.366l1.866,7.406a.484.484,0,1,1-.938.237l-1.774-7.041h-6.988l-1.782,7.084A.484.484,0,0,1,107.416,665.531Z" fill="#606060"/>
    </g>
    <path id="Path_3272" data-name="Path 3272" d="M132.027,665.5l-1.769-6.452h-6.452l-1.769,6.452Z" fill="#1c1c1c"/>
    <g id="Group_46" data-name="Group 46">
      <path id="Path_3273" data-name="Path 3273" d="M132.141,665.573a.485.485,0,0,1-.469-.366l-1.791-7.126h-6.987L121.1,665.2a.484.484,0,1,1-.938-.236l1.882-7.486a.484.484,0,0,1,.469-.366h7.742a.484.484,0,0,1,.469.366l1.884,7.492a.485.485,0,0,1-.352.588A.53.53,0,0,1,132.141,665.573Z" fill="#606060"/>
    </g>
    <path id="Path_3274" data-name="Path 3274" d="M109.571,636.661l2.457-3.548h-2.576l-2.9,3.548Z" fill="#fd5d14"/>
    <path id="Path_3275" data-name="Path 3275" d="M120.532,636.339l-2.371-3.226h-2.581l2.258,3.226Z" fill="#fd5d14"/>
    <path id="Path_3276" data-name="Path 3276" d="M115.817,636.339l-2.172-3.226-1.935,3.226Z" fill="#fd5d14"/>
    <path id="Path_3277" data-name="Path 3277" d="M109.577,636.661h-4.538l7.658,9.644Z" fill="#fd5d14"/>
    <path id="Path_3278" data-name="Path 3278" d="M113.645,636.661H109.86l2.836,9.644Z" fill="#fd5d14"/>
    <path id="Path_3279" data-name="Path 3279" d="M118.806,636.661H116.1l-2.836,9.077Z" fill="#fd5d14"/>
    <g id="Group_47" data-name="Group 47">
      <path id="Path_3280" data-name="Path 3280" d="M112.135,657.8a.485.485,0,0,1-.469-.366l-1.785-7.1h-6.988l-1.782,7.083a.484.484,0,0,1-.939-.237l1.875-7.448a.484.484,0,0,1,.469-.366h7.742a.484.484,0,0,1,.469.366l1.878,7.463a.485.485,0,0,1-.351.588A.546.546,0,0,1,112.135,657.8Z" fill="#606060"/>
    </g>
    <g id="Group_48" data-name="Group 48">
      <path id="Path_3281" data-name="Path 3281" d="M109.29,658.081h-5.806a.484.484,0,0,1,0-.968h5.806a.484.484,0,0,1,0,.968Z" fill="#606060"/>
    </g>
    <g id="Group_49" data-name="Group 49">
      <path id="Path_3282" data-name="Path 3282" d="M113.869,657.784a.485.485,0,0,1-.47-.6l1.874-7.445a.484.484,0,0,1,.469-.366h7.742a.484.484,0,0,1,.469.366l1.873,7.443a.484.484,0,1,1-.938.236l-1.781-7.077h-6.988l-1.781,7.079A.485.485,0,0,1,113.869,657.784Z" fill="#606060"/>
    </g>
    <g id="Group_50" data-name="Group 50">
      <path id="Path_3283" data-name="Path 3283" d="M122.839,658.081H116.71a.484.484,0,0,1,0-.968h6.129a.484.484,0,0,1,0,.968Z" fill="#606060"/>
    </g>
    <g id="Group_51" data-name="Group 51">
      <path id="Path_3284" data-name="Path 3284" d="M112.847,646.876a.485.485,0,0,1-.372-.174l-8.234-9.892a.485.485,0,0,1,.372-.794h16.452a.484.484,0,0,1,.372.793l-8.218,9.892a.483.483,0,0,1-.372.175Zm-7.2-9.892,7.2,8.651,7.186-8.651Z" fill="#606060"/>
    </g>
    <g id="Group_52" data-name="Group 52">
      <path id="Path_3285" data-name="Path 3285" d="M112.847,646.9a.484.484,0,0,1-.46-.333l-3.254-9.892a.484.484,0,0,1,.919-.3l2.795,8.495,2.794-8.495a.484.484,0,0,1,.919.3l-3.253,9.892A.485.485,0,0,1,112.847,646.9Z" fill="#606060"/>
    </g>
    <g id="Group_53" data-name="Group 53">
      <path id="Path_3286" data-name="Path 3286" d="M109.592,637.009a.483.483,0,0,1-.4-.76l3.254-4.68a.483.483,0,0,1,.794,0l3.254,4.68a.484.484,0,0,1-.794.552l-2.857-4.108L109.99,636.8A.481.481,0,0,1,109.592,637.009Z" fill="#606060"/>
    </g>
    <g id="Group_54" data-name="Group 54">
      <path id="Path_3287" data-name="Path 3287" d="M121.065,636.967a.481.481,0,0,1-.385-.19l-3.542-4.632h-8.6L105,636.777a.484.484,0,1,1-.768-.588l3.687-4.822a.486.486,0,0,1,.384-.19h9.077a.487.487,0,0,1,.385.19l3.687,4.822a.484.484,0,0,1-.091.679A.477.477,0,0,1,121.065,636.967Z" fill="#606060"/>
    </g>
    <g id="Group_55" data-name="Group 55">
      <path id="Path_3288" data-name="Path 3288" d="M132.516,665.823H93.484a.484.484,0,0,1,0-.968h39.032a.484.484,0,0,1,0,.968Z" fill="#606060"/>
    </g>
    <g id="Group_56" data-name="Group 56">
      <path id="Path_3289" data-name="Path 3289" d="M131.548,663.887h-7.742a.484.484,0,0,1,0-.968h7.742a.484.484,0,0,1,0,.968Z" fill="#606060"/>
    </g>
    <g id="Group_57" data-name="Group 57">
      <path id="Path_3290" data-name="Path 3290" d="M124.774,656.145h-6.129a.484.484,0,0,1,0-.968h6.129a.484.484,0,0,1,0,.968Z" fill="#606060"/>
    </g>
    <g id="Group_58" data-name="Group 58">
      <path id="Path_3291" data-name="Path 3291" d="M118.323,663.887h-5.807a.484.484,0,0,1,0-.968h5.807a.484.484,0,0,1,0,.968Z" fill="#606060"/>
    </g>
    <g id="Group_59" data-name="Group 59">
      <path id="Path_3292" data-name="Path 3292" d="M110.581,663.887h-2.258a.484.484,0,0,1,0-.968h2.258a.484.484,0,0,1,0,.968Z" fill="#606060"/>
    </g>
    <g id="Group_60" data-name="Group 60">
      <path id="Path_3293" data-name="Path 3293" d="M105.1,663.887H99.613a.484.484,0,0,1,0-.968H105.1a.484.484,0,0,1,0,.968Z" fill="#606060"/>
    </g>
  </g>
  <g id="Rectangle_124" data-name="Rectangle 124" fill="none" stroke="#e6e6e6" stroke-width="2">
    <rect width="55" height="55" rx="11" stroke="none"/>
    <rect x="1" y="1" width="53" height="53" rx="10" fill="none"/>
  </g>
</svg>
