<svg xmlns="http://www.w3.org/2000/svg" xmlns:xlink="http://www.w3.org/1999/xlink" width="55" height="55" viewBox="0 0 55 55">
  <defs>
    <clipPath id="clip-path">
      <rect id="Rectangle_123" data-name="Rectangle 123" width="31.132" height="39.523" transform="translate(0 0)" fill="none"/>
    </clipPath>
  </defs>
  <g id="Group_832" data-name="Group 832" transform="translate(11.934 7.738)">
    <path id="Path_8856" data-name="Path 8856" d="M10.021,11.156l.383,7.658,1.5.844,1.436,1.6.645-.67Z" fill="#fd5d14"/>
    <path id="Path_8857" data-name="Path 8857" d="M12.542,35.276l-.048,1.744-2.378.109-.063-1.853H8.488v3.706H26.61V35.276Z" fill="#1c1c1c"/>
    <g id="Group_831" data-name="Group 831">
      <g id="Group_830" data-name="Group 830" clip-path="url(#clip-path)">
        <path id="Path_8858" data-name="Path 8858" d="M10.233,29.512S21.4,30.584,23.446,27.6v3.919l-13.213.166Z" fill="#fd5d14"/>
        <path id="Path_8859" data-name="Path 8859" d="M8.616,34.629a.541.541,0,0,1-.541-.54V31.556a.542.542,0,0,1,.541-.541H25.078a.541.541,0,0,1,.54.541v2.533a.54.54,0,0,1-.54.54Zm.64-2.533a.1.1,0,0,0-.1.1v1.253a.1.1,0,0,0,.1.1H24.437a.1.1,0,0,0,.1-.1V32.2a.1.1,0,0,0-.1-.1Z" fill="#606060"/>
        <path id="Path_8860" data-name="Path 8860" d="M7.056,39.524a.543.543,0,0,1-.541-.541V34.09a.542.542,0,0,1,.541-.541H26.638a.541.541,0,0,1,.54.541v4.893a.542.542,0,0,1-.54.541ZM7.7,34.63a.1.1,0,0,0-.1.1v3.612a.1.1,0,0,0,.1.1H26a.1.1,0,0,0,.1-.1V34.73a.1.1,0,0,0-.1-.1Z" fill="#606060"/>
        <path id="Path_8861" data-name="Path 8861" d="M9.944,37.473a.542.542,0,0,1-.54-.541V34.09a.542.542,0,0,1,.54-.541H12.5a.541.541,0,0,1,.54.541v2.842a.541.541,0,0,1-.54.541Zm.641-2.843a.1.1,0,0,0-.1.1v1.561a.1.1,0,0,0,.1.1h1.273a.1.1,0,0,0,.1-.1V34.73a.1.1,0,0,0-.1-.1Z" fill="#606060"/>
        <path id="Path_8862" data-name="Path 8862" d="M5.005,39.523a.541.541,0,0,1,0-1.082H28.689a.541.541,0,0,1,0,1.082Z" fill="#606060"/>
        <path id="Path_8863" data-name="Path 8863" d="M29.548,26.585a.526.526,0,0,1-.3-.091l-2.4-1.592a.54.54,0,1,1,.6-.9l2.4,1.592a.541.541,0,0,1-.3.991" fill="#606060"/>
        <path id="Path_8864" data-name="Path 8864" d="M30.592,20.236a.547.547,0,0,1-.178-.031l-2.526-.881a.54.54,0,0,1,.18-1.05.572.572,0,0,1,.178.029l2.524.882a.54.54,0,0,1-.178,1.051" fill="#606060"/>
        <path id="Path_8865" data-name="Path 8865" d="M28.067,14.562a.541.541,0,1,1,0-1.081h2.525a.541.541,0,0,1,0,1.081Z" fill="#606060"/>
        <path id="Path_8866" data-name="Path 8866" d="M1.584,26.585a.541.541,0,0,1-.3-.991L3.682,24a.543.543,0,0,1,.3-.09.54.54,0,0,1,.3.99l-2.4,1.592a.526.526,0,0,1-.3.091" fill="#606060"/>
        <path id="Path_8867" data-name="Path 8867" d="M.541,20.236a.541.541,0,0,1-.487-.776.537.537,0,0,1,.309-.275L2.888,18.3a.556.556,0,0,1,.177-.029.54.54,0,0,1,.18,1.05L.72,20.2a.557.557,0,0,1-.179.031" fill="#606060"/>
        <path id="Path_8868" data-name="Path 8868" d="M.541,14.562a.541.541,0,1,1,0-1.081H3.066a.541.541,0,0,1,0,1.081Z" fill="#606060"/>
        <path id="Path_8869" data-name="Path 8869" d="M9.188,10.075V6.993a1.072,1.072,0,0,1,1.07-1.07H21.082a1.073,1.073,0,0,1,1.07,1.07V21.747a1.073,1.073,0,0,1-1.07,1.07H14.17" fill="#fd5d14"/>
        <path id="Path_8870" data-name="Path 8870" d="M21.082,23.316H14.169v-1h6.913a.571.571,0,0,0,.57-.569V6.993a.571.571,0,0,0-.57-.571H10.258a.571.571,0,0,0-.57.571v3.082h-1V6.993a1.573,1.573,0,0,1,1.57-1.571H21.082a1.572,1.572,0,0,1,1.57,1.571V21.747a1.571,1.571,0,0,1-1.57,1.569" fill="#606060"/>
        <path id="Path_8871" data-name="Path 8871" d="M10.733,5.532h-1v-2.2a2.377,2.377,0,0,1,4.752,0h-1a1.378,1.378,0,0,0-2.752,0Z" fill="#606060"/>
        <path id="Path_8872" data-name="Path 8872" d="M14.485,5.532h-1V2.312a2.377,2.377,0,0,1,4.752,0V4.858h-1V2.312a1.378,1.378,0,0,0-2.752,0Z" fill="#606060"/>
        <path id="Path_8873" data-name="Path 8873" d="M21.989,6.1h-1V3.713a1.378,1.378,0,0,0-2.752,0v1.82h-1V3.713a2.377,2.377,0,0,1,4.752,0Z" fill="#606060"/>
        <path id="Path_8874" data-name="Path 8874" d="M13.926,23.429a.543.543,0,0,1-.54-.509c-.169-2.831-3.124-3.263-3.25-3.28a.544.544,0,0,1-.467-.536V11.891a.54.54,0,1,1,1.08,0V18.58a.1.1,0,0,0,.075.1,4.627,4.627,0,0,1,3.642,4.178.542.542,0,0,1-.507.572Z" fill="#606060"/>
        <path id="Path_8875" data-name="Path 8875" d="M10.209,32.1a.54.54,0,0,1-.54-.54V26.835l-3.11-3.381A6.2,6.2,0,0,1,4.89,19.212v-7.2A3.016,3.016,0,0,1,7.559,8.972c.085-.007.169-.011.254-.011a2.931,2.931,0,0,1,2.937,2.93.541.541,0,1,1-1.081,0,1.853,1.853,0,0,0-.6-1.363,1.812,1.812,0,0,0-1.249-.486c-.055,0-.111,0-.168.007A1.929,1.929,0,0,0,5.97,12.015v7.2a5.13,5.13,0,0,0,1.38,3.507l3.255,3.5a.539.539,0,0,1,.145.367v4.333a.1.1,0,0,0,.1.1H22.845a.1.1,0,0,0,.1-.1V29.4a19.049,19.049,0,0,1,.858-5.66l.73-2.354,0-13.352a1.389,1.389,0,0,0-1.074-1.4,1.424,1.424,0,0,0-.25-.022,1.3,1.3,0,0,0-.97.431.537.537,0,0,1-.4.178c-.135,0,.342-.506.243-.6s-.293-.1-.3-.244-.44.043-.343-.063a2.412,2.412,0,0,1,1.782-.785,2.389,2.389,0,0,1,2.393,2.5V21.45a.556.556,0,0,1-.025.16l-.759,2.447a17.971,17.971,0,0,0-.81,5.339v2.16a.54.54,0,0,1-.54.54Z" fill="#606060"/>
        <path id="Path_8876" data-name="Path 8876" d="M11.575,12.011a.741.741,0,0,0-.436,1.34l.978.71a2.1,2.1,0,0,1,.764,2.351l-.374,1.149a.723.723,0,0,0,.269.829.77.77,0,0,0,.441.148.729.729,0,0,0,.43-.148l.978-.711a2.1,2.1,0,0,1,2.473,0l.977.709a.717.717,0,0,0,.43.147.786.786,0,0,0,.441-.146.724.724,0,0,0,.269-.829l-.373-1.151a2.1,2.1,0,0,1,.763-2.349l.978-.71a.741.741,0,0,0-.435-1.34H18.939a2.1,2.1,0,0,1-2-1.454l-.373-1.149a.743.743,0,0,0-1.411,0l-.374,1.149a2.094,2.094,0,0,1-2,1.454Z" fill="#fff"/>
        <path id="Path_8877" data-name="Path 8877" d="M14,16.557a.251.251,0,0,1-.119-.207A.258.258,0,0,1,14,16.139a.471.471,0,0,1,.29-.088H15.41V12.727a.068.068,0,0,0-.033-.065.133.133,0,0,0-.1.011l-.827.285a.683.683,0,0,1-.218.041.5.5,0,0,1-.3-.085.252.252,0,0,1-.119-.213c0-.132.085-.227.256-.287l1.293-.482a.653.653,0,0,1,.266-.047h.2a.546.546,0,0,1,.328.1.285.285,0,0,1,.138.235v3.833h.931a.5.5,0,0,1,.3.088.256.256,0,0,1,.123.211.248.248,0,0,1-.123.207.507.507,0,0,1-.3.085H14.289a.483.483,0,0,1-.29-.085" fill="#1c1c1c"/>
      </g>
    </g>
  </g>
  <g id="Rectangle_124" data-name="Rectangle 124" fill="none" stroke="#e6e6e6" stroke-width="2">
    <rect width="55" height="55" rx="11" stroke="none"/>
    <rect x="1" y="1" width="53" height="53" rx="10" fill="none"/>
  </g>
</svg>
