<svg xmlns="http://www.w3.org/2000/svg" width="41.409" height="39.455" viewBox="0 0 41.409 39.455">
  <g id="Group_877" data-name="Group 877" transform="translate(-7.636 -9.132)">
    <g id="g7962" transform="translate(7.636 9.132)">
      <path id="path7964" d="M76.426,63.655c0-9.265-9.288-16.8-20.7-16.8s-20.7,7.537-20.7,16.8c0,8.306,7.366,15.261,17.316,16.577.674.145,1.592.445,1.824,1.021a4.251,4.251,0,0,1,.067,1.872s-.243,1.461-.3,1.772c-.09.523-.416,2.047,1.793,1.116s11.924-7.021,16.268-12.021h0c3-3.29,4.438-6.63,4.438-10.337" transform="translate(-35.017 -46.853)" fill="#fff"/>
    </g>
    <g id="Group_875" data-name="Group 875">
      <g id="g7966" transform="translate(22.278 21.457)">
        <path id="path7968" d="M113.6,111.44h-1.452a.4.4,0,0,0-.4.4v9.022a.4.4,0,0,0,.4.4H113.6a.4.4,0,0,0,.4-.4v-9.022a.4.4,0,0,0-.4-.4" transform="translate(-111.745 -111.44)" fill="#06c755"/>
      </g>
      <g id="g7970" transform="translate(25.949 21.457)">
        <path id="path7972" d="M139.163,111.44h-1.452a.4.4,0,0,0-.4.4v5.36l-4.134-5.583a.408.408,0,0,0-.031-.041l0,0-.024-.025-.008-.007-.021-.018-.01-.008-.021-.014-.012-.007-.021-.012-.013-.006-.023-.01-.013,0-.024-.008-.014,0-.023-.005-.017,0-.021,0h-1.487a.4.4,0,0,0-.4.4v9.022a.4.4,0,0,0,.4.4h1.452a.4.4,0,0,0,.4-.4v-5.358l4.139,5.59a.4.4,0,0,0,.1.1l0,0,.025.015.012.006.019.009.02.008.012,0,.027.009h.006a.4.4,0,0,0,.1.014h1.452a.4.4,0,0,0,.4-.4v-9.022a.4.4,0,0,0-.4-.4" transform="translate(-130.982 -111.44)" fill="#06c755"/>
      </g>
      <g id="g7974" transform="translate(14.428 21.456)">
        <path id="path7976" d="M76.815,119.007H72.869v-7.165a.4.4,0,0,0-.4-.4H71.013a.4.4,0,0,0-.4.4v9.02h0a.4.4,0,0,0,.113.279l.006.006.006.006a.4.4,0,0,0,.279.113h5.8a.4.4,0,0,0,.4-.4V119.41a.4.4,0,0,0-.4-.4" transform="translate(-70.61 -111.439)" fill="#06c755"/>
      </g>
      <g id="g7978" transform="translate(35.945 21.456)">
        <path id="path7980" d="M189.571,113.7a.4.4,0,0,0,.4-.4v-1.452a.4.4,0,0,0-.4-.4h-5.8a.4.4,0,0,0-.279.114l0,0-.006.007a.4.4,0,0,0-.112.278h0v9.02h0a.4.4,0,0,0,.113.279l.006.006.006.006a.4.4,0,0,0,.278.113h5.8a.4.4,0,0,0,.4-.4V119.41a.4.4,0,0,0-.4-.4h-3.946v-1.525h3.946a.4.4,0,0,0,.4-.4v-1.452a.4.4,0,0,0-.4-.4h-3.946V113.7Z" transform="translate(-183.366 -111.439)" fill="#06c755"/>
      </g>
    </g>
  </g>
</svg>
