<svg xmlns="http://www.w3.org/2000/svg" width="55" height="55" viewBox="0 0 55 55">
  <g id="Group_302" data-name="Group 302" transform="translate(-355.356 -620.212)">
    <g id="Group_296" data-name="Group 296">
      <path id="Path_3439" data-name="Path 3439" d="M387.341,649.323l-.878-.439,4.391-7.9,3.952.439Z" fill="#fd5d14"/>
      <path id="Path_3440" data-name="Path 3440" d="M386.024,650.2l-.878.878-.878-9.659,2.634-.439Z" fill="#fd5d14"/>
      <path id="Path_3441" data-name="Path 3441" d="M382.073,655.909l-3.513-10.977,1.946-1.875Z" fill="#fd5d14"/>
      <path id="Path_3442" data-name="Path 3442" d="M395.872,647.341c-1.841.425-3.982-.4-4.591.957a1.629,1.629,0,0,0,1.028,2.236,4.187,4.187,0,0,1-2.126.515.134.134,0,0,0-.108.229l2.041,1.973a.134.134,0,0,0,.225-.116,4.2,4.2,0,0,1,.452-2.162,1.616,1.616,0,0,0,2.273.984C396.4,651.3,395.492,649.179,395.872,647.341Z" fill="#fd5d14"/>
      <g id="Group_292" data-name="Group 292">
        <path id="Path_3443" data-name="Path 3443" d="M391.89,658.976a1.553,1.553,0,0,1-1.1-.455l-5.855-5.855a1.561,1.561,0,0,1,0-2.2l9.519-9.518a1.594,1.594,0,0,1,2.2,0l5.853,5.853a1.56,1.56,0,0,1,0,2.2l-9.518,9.518A1.551,1.551,0,0,1,391.89,658.976Zm3.664-17.17a.235.235,0,0,0-.169.071l-9.519,9.518a.24.24,0,0,0,0,.34l5.854,5.854a.241.241,0,0,0,.34,0l9.518-9.518a.241.241,0,0,0,0-.34l-5.854-5.854A.239.239,0,0,0,395.554,641.806Z" fill="#606060"/>
      </g>
      <g id="Group_293" data-name="Group 293">
        <path id="Path_3444" data-name="Path 3444" d="M386.212,650.434a.642.642,0,0,1-.075,0,.659.659,0,0,1-.58-.729l.932-8.174a1.84,1.84,0,0,1,2.034-1.618l6.389.729a.659.659,0,0,1-.149,1.309l-6.389-.729a.535.535,0,0,0-.383.11.519.519,0,0,0-.193.348l-.932,8.174A.658.658,0,0,1,386.212,650.434Z" fill="#606060"/>
      </g>
      <g id="Group_294" data-name="Group 294">
        <path id="Path_3445" data-name="Path 3445" d="M383.734,657.279a1.836,1.836,0,0,1-1.82-1.622L380.4,642.846a1.839,1.839,0,0,1,1.608-2.041l4.933-.584a.651.651,0,0,1,.732.576.657.657,0,0,1-.576.731l-4.934.584a.522.522,0,0,0-.456.578l1.517,12.812a.524.524,0,0,0,.195.348.538.538,0,0,0,.383.108l.044,0,2.216-.113a.665.665,0,0,1,.691.624.658.658,0,0,1-.624.691l-2.2.112A1.848,1.848,0,0,1,383.734,657.279Z" fill="#606060"/>
      </g>
      <g id="Group_295" data-name="Group 295">
        <path id="Path_3446" data-name="Path 3446" d="M379.98,654.727a.659.659,0,0,1-.477-.2l-4.72-4.959a1.837,1.837,0,0,1,.065-2.6l5.591-5.322a.659.659,0,0,1,.908.955l-5.591,5.322a.514.514,0,0,0-.162.363.52.52,0,0,0,.144.372l4.719,4.958a.658.658,0,0,1-.477,1.113Z" fill="#606060"/>
      </g>
    </g>
    <g id="Group_297" data-name="Group 297">
      <path id="Path_3447" data-name="Path 3447" d="M371.971,661.607a2.9,2.9,0,0,0,2.9,2.9h14.416a2.9,2.9,0,0,0,2.9-2.9v-1.069h-20.22Z" fill="#1c1c1c"/>
    </g>
    <g id="Group_298" data-name="Group 298">
      <path id="Path_3448" data-name="Path 3448" d="M389.289,665.171H374.873a3.568,3.568,0,0,1-3.564-3.564V633.614a3.568,3.568,0,0,1,3.564-3.564h14.416a3.568,3.568,0,0,1,3.564,3.564v5a.662.662,0,1,1-1.324,0v-5a2.242,2.242,0,0,0-2.24-2.239H374.873a2.242,2.242,0,0,0-2.24,2.239v27.993a2.243,2.243,0,0,0,2.24,2.24h14.416a2.243,2.243,0,0,0,2.24-2.24v-1.069a.662.662,0,1,1,1.324,0v1.069A3.568,3.568,0,0,1,389.289,665.171Z" fill="#606060"/>
    </g>
    <g id="Group_299" data-name="Group 299">
      <path id="Path_3449" data-name="Path 3449" d="M386.88,633.768H380.7a.663.663,0,0,1,0-1.325h6.175a.663.663,0,1,1,0,1.325Z" fill="#606060"/>
    </g>
    <g id="Group_300" data-name="Group 300">
      <path id="Path_3450" data-name="Path 3450" d="M378.266,633.768h-.984a.663.663,0,1,1,0-1.325h.984a.663.663,0,0,1,0,1.325Z" fill="#606060"/>
    </g>
    <g id="Group_301" data-name="Group 301">
      <path id="Path_3451" data-name="Path 3451" d="M392.191,661.2h-20.22a.662.662,0,1,1,0-1.324h20.22a.662.662,0,0,1,0,1.324Z" fill="#606060"/>
    </g>
  </g>
  <g id="Rectangle_124" data-name="Rectangle 124" fill="none" stroke="#e6e6e6" stroke-width="2">
    <rect width="55" height="55" rx="11" stroke="none"/>
    <rect x="1" y="1" width="53" height="53" rx="10" fill="none"/>
  </g>
</svg>
