<svg xmlns="http://www.w3.org/2000/svg" width="181.45" height="41.751" viewBox="0 0 181.45 41.751">
  <g id="Group_126" data-name="Group 126" transform="translate(-220.891 -84.639)">
    <path id="Path_3346" data-name="Path 3346" d="M228.625,105.694l1.583-9.453h-4.3l1.553-3.763h3.378l1.274-6.712,3.808-.9-1.275,7.615H237.6l-.63,3.763h-2.956l-1.23,7.347,2.756-1.747,1.835,2.957-4.564,2.643-.74.4-2.339,13.977c-.143.851-1.116,4.256-4.7,4.256a16.818,16.818,0,0,1-4.143-.672l.757-3.988,1.814.673a4.606,4.606,0,0,0,1.224.179c.538,0,1.165,0,1.412-1.478l1.838-10.976-2.906,1.3-1.655-3.225ZM257.491,125.4c-3.695-1.479-6.6-4.435-8.774-8.6-2.766,3.943-7.972,7.213-15.44,9.542l-1.259-3.449c6.369-1.658,10.971-4.256,13.631-7.571H235.166l.578-3.449h11.781l.45-1.613.172-1.03H238.112l.585-3.5h10.035l.413-2.463h-11.11l.577-3.45h5.958l-.6-3.9h-4.883l.578-3.45h7.884l1.305-7.795h3.629l-1.305,7.795h3.36l1.3-7.795h3.629l-1.3,7.795h1.3a55.347,55.347,0,0,0,4.217-7.257l2.9,1.434-3.35,5.823h4.3l-.577,3.45h-6.989l-1.593,3.9h6.9l-.578,3.45H252.952l-.412,2.463h10.886l-.585,3.5H251.955l-.172,1.03-.4,1.613h12.768l-.578,3.449H252.279l1.372,2.24c1.76,2.6,4.813,4.435,8.956,5.376l-2.541,3.4ZM240.607,87.371l3.227-1.881a28.417,28.417,0,0,1,2.356,4.659l-3.227,1.612Zm7.681,12.454h6.362c.643-1.434,1.271-2.777,1.638-3.9h-8.557Z" fill="#fff"/>
    <path id="Path_3347" data-name="Path 3347" d="M291.929,111.293h-7.347c-2.044,7.123-5.691,12.588-17.154,14.963l-1.169-3.718a21.972,21.972,0,0,0,6.086-1.568l1.9-.9c3.107-1.7,5.26-4.659,6.443-8.781h-8.019c-.359,0-.515-.134-.448-.537l2.362-14.112a.536.536,0,0,1,.62-.492h13.843l.682-4.077H271.761l2.7-3.808h15.906l.6-2.729,3.808-.855-.6,3.584h18.008l-2.245,3.808h-16.4l-.682,4.077h14.111c.4,0,.56.134.5.492L305.1,110.756c-.068.4-.269.537-.673.537h-8.69l-1.373,8.2a1.737,1.737,0,0,0,1.783,2.195h5.734a2.126,2.126,0,0,0,1.24-.448c.246-.134.83-2.016,1.565-5.6l3.65.672c-1.1,4.7-1.939,7.3-2.447,7.66a4.751,4.751,0,0,1-2.943,1.523h-9.587a3.4,3.4,0,0,1-3.162-3.852Zm10.946-11.334H278.012c-.134,0-.179,0-.2.135l-1.208,7.212c-.022.135.015.179.15.179h24.862c.135,0,.232-.044.254-.179l1.208-7.212Z" fill="#fff"/>
    <path id="Path_3348" data-name="Path 3348" d="M332.193,94.494a52.486,52.486,0,0,1-5.357-6,48.079,48.079,0,0,1-8.471,6.72l-2.9-2.24c5.229-2.867,8.732-5.6,10.347-8.019l3.442.045-.374.627A55.9,55.9,0,0,0,335.45,91.9Zm-14,11.916h-4.121l.577-3.449H331.4c.948-.045,1.261.224,1.238.627l-1.769,10.572a8.9,8.9,0,0,1-3.9,6.451,6.034,6.034,0,0,1-3.107.627,21.317,21.317,0,0,1-3.135-.268l.413-3.808a14.3,14.3,0,0,0,3.1.493c2.016,0,2.749-1.972,2.9-2.867l1.32-7.885c.052-.313-.1-.493-.455-.493h-6.182l-3.285,19.622h-3.628Zm.464-11.065h13.529l-.608,3.629H318.048Zm20.035,25.625a31.678,31.678,0,0,1-10.307,5.375,9.16,9.16,0,0,0-.453-3.449,24.848,24.848,0,0,0,8.836-4.883Zm13.249-4.211a.561.561,0,0,1-.62.492H332.953a.375.375,0,0,1-.411-.492l3.99-23.833a.5.5,0,0,1,.567-.448h5.914l1.436-3.225H336.3l1.585-3.45h19.868l-.578,3.45h-9.049l-.778,1.971-.568,1.254h8.691c.358,0,.515.135.462.448ZM339.08,99.646h12.1l.6-3.584-.157-.134H339.792c-.089,0-.142.044-.112.134Zm-1.2,7.168h12.1l.622-3.719H338.5Zm11.518,3.449H337.3l-.562,3.36.059.179h11.827l.209-.179Zm.213,16.127a42.241,42.241,0,0,0-6.761-5.107l2.444-3.091a32.5,32.5,0,0,1,6.962,5.242Z" fill="#fff"/>
    <path id="Path_3349" data-name="Path 3349" d="M360.849,114.922l2.872-17.158h-3.852l.607-3.628h3.853l1.582-7.685,3.629-1.768-1.583,9.453h3.629l-.607,3.628H367.35L364.733,113.4a32.05,32.05,0,0,0,4.152-2.061l1.454,3.091a78.239,78.239,0,0,1-12.913,5.152l-1.155-3.27Zm4.261,3.718c8.027-1.926,14.211-4.076,18.454-6.406l1.311,3.136a102.268,102.268,0,0,1-18.693,6.764Zm32.76-27.909-.383,2.285h-5.734a91.726,91.726,0,0,0-.946,17.157A54.178,54.178,0,0,0,396.484,96.6l3.419.716a54.336,54.336,0,0,1-8.666,17.516c.163,1.165,1.033,6.406,1.929,6.406.582,0,1.085-2.732,1.535-5.42l3.329.985c-1.536,6.765-2.613,9.453-5.211,9.453-2.374,0-3.678-3.987-4.579-7.974a36.818,36.818,0,0,1-11.966,8.063l-1.969-2.956a34.011,34.011,0,0,0,13.274-8.915c-.6-5.51-.387-12.678.725-21.458H372.221l1.707-3.629h14.849l.757-4.524,3.576.313-.794,4.211h4.972a13.6,13.6,0,0,0-1.543-2.822l3.279-1.926a31.691,31.691,0,0,1,3.317,7.481l-3.294,1.747Zm-14.081,19.353a.575.575,0,0,1-.627.537H370.887c-.269,0-.418-.179-.358-.537l2.227-13.305a.534.534,0,0,1,.531-.493h12.274c.359,0,.508.179.455.493Zm-1.9-10.3h-6.047l-.157.135-1.185,7.078.1.179h6.048c.089,0,.142-.045.164-.179L382,99.915Z" fill="#fff"/>
  </g>
</svg>
